<svg width="100" height="26" viewBox="0 0 100 26" fill="none" xmlns="http://www.w3.org/2000/svg">
<mask id="mask0_197_2191" style="mask-type:alpha" maskUnits="userSpaceOnUse" x="0" y="1" width="25" height="25">
<path fill-rule="evenodd" clip-rule="evenodd" d="M0 1.21411H24.7177V25.2504H0V1.21411Z" fill="white"/>
</mask>
<g mask="url(#mask0_197_2191)">
<path fill-rule="evenodd" clip-rule="evenodd" d="M18.962 1.21411C17.3106 1.21411 15.8449 2.23523 15.318 3.75023L10.4277 17.8223C10.3175 18.1398 9.83422 18.0796 9.81088 17.7426L8.87483 3.76399C8.77906 2.32809 7.55124 1.21411 6.06839 1.21411H0L3.48986 21.2362C3.89387 23.5532 5.96575 25.2505 8.39153 25.2505H10.6597C12.639 25.2505 14.4294 24.1152 15.2185 22.356L24.7177 1.21411H18.962Z" fill="white"/>
</g>
<mask id="mask1_197_2191" style="mask-type:alpha" maskUnits="userSpaceOnUse" x="23" y="0" width="26" height="26">
<path fill-rule="evenodd" clip-rule="evenodd" d="M23.3101 0H48.0277V25.2503H23.3101V0Z" fill="white"/>
</mask>
<g mask="url(#mask1_197_2191)">
<path fill-rule="evenodd" clip-rule="evenodd" d="M38.433 16.5975C37.1606 18.5048 35.7481 19.57 34.2872 19.57C32.9211 19.57 31.7907 18.8601 31.7907 15.7551C31.7907 11.3603 33.298 5.50148 37.7252 5.50148C38.6678 5.50148 39.2798 5.59176 40.1277 5.85678L38.433 16.5975ZM42.9291 0.514384C41.2574 0.159084 39.5926 0 38.0078 0C27.173 0 23.3101 8.91962 23.3101 15.7551C23.3101 21.5677 26.0908 25.2504 31.6007 25.2504C34.946 25.2504 37.3004 23.5635 38.9971 21.2127C39.7351 23.4147 41.9614 24.9033 45.2282 25.1115L46.4347 17.3065C46.4368 17.2915 46.4385 17.2785 46.4402 17.2632L47.9588 7.4245C48.4507 4.23907 46.2621 1.2243 42.9291 0.514384Z" fill="white"/>
</g>
<mask id="mask2_197_2191" style="mask-type:alpha" maskUnits="userSpaceOnUse" x="75" y="0" width="25" height="26">
<path fill-rule="evenodd" clip-rule="evenodd" d="M75.2822 0H99.9999V25.2503H75.2822V0Z" fill="white"/>
</mask>
<g mask="url(#mask2_197_2191)">
<path fill-rule="evenodd" clip-rule="evenodd" d="M90.4052 16.5975C89.1328 18.5048 87.7203 19.57 86.2594 19.57C84.8932 19.57 83.7629 18.8601 83.7629 15.7551C83.7629 11.3603 85.2701 5.50148 89.6974 5.50148C90.64 5.50148 91.252 5.59176 92.1002 5.85678L90.4052 16.5975ZM94.9016 0.514384C93.2296 0.159084 91.5648 0 89.98 0C79.1452 0 75.2822 8.91962 75.2822 15.7551C75.2822 21.5677 78.0629 25.2504 83.5728 25.2504C86.9182 25.2504 89.2726 23.5635 90.9693 21.2127C91.7073 23.4147 93.9336 24.9033 97.2004 25.1115L98.4069 17.3065C98.409 17.2915 98.4107 17.2785 98.4124 17.2632L99.9309 7.4245C100.423 4.23907 98.2342 1.2243 94.9016 0.514384Z" fill="white"/>
</g>
<mask id="mask3_197_2191" style="mask-type:alpha" maskUnits="userSpaceOnUse" x="49" y="0" width="24" height="26">
<path fill-rule="evenodd" clip-rule="evenodd" d="M49.1387 0H72.1538V25.2503H49.1387V0Z" fill="white"/>
</mask>
<g mask="url(#mask3_197_2191)">
<path fill-rule="evenodd" clip-rule="evenodd" d="M63.8518 0H62.3434C56.7622 0 52.033 4.2067 51.2543 9.8639L49.1387 25.2504H56.8549L59.1515 8.54729C59.378 6.90466 60.7517 5.68207 62.3729 5.68207C63.7102 5.68207 64.7385 6.89342 64.5521 8.24819L62.2143 25.2504H69.9305L72.0713 9.67961C72.7743 4.56745 68.8965 0 63.8518 0Z" fill="white"/>
</g>
</svg>
