<svg width="533" height="142" viewBox="0 0 533 142" fill="none" xmlns="http://www.w3.org/2000/svg">
<path d="M-0.000129117 68.5987C4.19014 68.5987 6.81581 66.9859 8.82912 64.4947C11.0032 61.8045 12.4803 58.0611 13.9354 53.7677C15.3023 49.7343 16.706 44.9909 18.7794 41.4124C20.9753 37.6228 24.3444 34.4077 29.7881 34.4076C35.2163 34.4076 38.6206 37.6044 40.8717 41.375C43.0052 44.9487 44.4853 49.6813 45.9169 53.7245C47.4379 58.0205 48.9678 61.7783 51.1745 64.4825C53.2253 66.9954 55.8545 68.5987 59.9712 68.5987L59.9712 75.2681C53.645 75.2681 49.1882 72.5975 46.0072 68.6997C42.9823 64.993 41.1348 60.2022 39.6293 55.9504C38.0345 51.446 36.8388 47.6306 35.1451 44.7935C33.5689 42.1535 31.9937 41.077 29.7881 41.077C27.5982 41.077 26.0686 42.1352 24.55 44.7561C22.9088 47.5885 21.7814 51.3936 20.2514 55.908C18.8096 60.1621 17.0234 64.9661 14.0168 68.6866C10.8491 72.6062 6.37612 75.268 -0.0001297 75.2681L-0.000129117 68.5987Z" fill="white"/>
<path d="M26.9647 86.1684C31.6506 86.1684 34.4907 87.3167 36.4469 88.7842C38.4875 90.315 39.8847 92.4199 41.3366 94.983C42.6731 97.3423 44.2411 100.503 46.4754 102.857C48.954 105.469 52.2603 107.179 56.9752 107.179C66.4819 107.179 71.0285 100.271 74.5678 95.2639C78.3714 89.8828 81.2764 86.1684 87.3057 86.1684L87.3057 79.499C77.4618 79.499 72.7434 86.2903 69.1212 91.4146C65.2346 96.913 62.5522 100.51 56.9752 100.51C54.1483 100.51 52.5733 99.5944 51.3129 98.2664C49.8083 96.681 48.7787 94.5888 47.1397 91.6955C45.6161 89.0059 43.6599 85.8579 40.4492 83.4492C37.1541 80.9772 32.8452 79.4991 26.9647 79.499L26.9647 86.1684Z" fill="white"/>
<path d="M481.28 141.587C454.223 141.587 433.738 118.601 433.738 90.3726C433.738 62.5475 454.803 39.5615 482.826 39.5615C510.462 39.5615 532.108 61.741 532.108 90.3726V139.571H520.705V116.786C513.555 131.505 499.06 141.587 481.28 141.587ZM482.826 129.691C503.698 129.691 520.125 111.947 520.125 90.5742C520.125 69.2013 503.698 51.4578 482.826 51.4578C462.147 51.4578 445.72 69.2013 445.72 90.5742C445.72 111.947 462.147 129.691 482.826 129.691Z" fill="white"/>
<path d="M437.596 51.2718C431.912 51.2718 427.704 54.5668 424.064 61.9934C420.346 69.5766 418.022 79.9996 415.833 91.2754C413.724 102.141 411.721 113.944 408.489 122.873C406.861 127.371 404.739 131.693 401.721 134.96C398.546 138.396 394.353 140.664 389.137 140.664C378.703 140.664 372.546 132.158 368.671 123.782C364.637 115.06 361.73 103.604 358.989 92.7917C356.167 81.6553 353.502 71.1167 349.979 63.1279C346.295 54.7721 342.721 51.627 339.395 51.2308L340.766 39.7177C350.842 40.9179 356.75 49.7453 360.589 58.4497C364.589 67.5212 367.488 79.1311 370.228 89.9436C373.051 101.08 375.707 111.373 379.195 118.914C382.844 126.8 386.169 129.069 389.137 129.069C390.623 129.069 391.864 128.543 393.205 127.092C394.704 125.47 396.181 122.808 397.587 118.926C400.422 111.093 402.221 100.548 404.451 89.0658C406.6 77.9937 409.153 66.0681 413.652 56.8903C418.227 47.5561 425.578 39.6768 437.596 39.6768V51.2718Z" fill="white"/>
<path d="M299.06 141.016C291.722 141.016 285.186 139.748 279.449 137.214C273.846 134.679 269.177 131.144 265.442 126.608C261.706 122.072 258.838 116.736 256.837 110.6C254.969 104.463 254.036 97.9261 254.036 90.9891C254.036 83.9186 254.969 77.3151 256.837 71.1784C258.705 64.9084 261.44 59.4388 265.042 54.7697C268.777 49.9671 273.313 46.2318 278.649 43.5637C284.118 40.8956 290.388 39.5615 297.459 39.5615C304.93 39.5615 311.333 40.8956 316.669 43.5637C322.139 46.0984 326.541 49.6336 329.876 54.1693C333.345 58.5717 335.879 63.441 337.48 68.7772C339.215 74.1133 340.082 79.5162 340.082 84.9858C340.082 86.0531 340.015 87.4538 339.882 89.1881C339.882 90.9224 339.748 92.3898 339.481 93.5904H266.442C266.709 104.93 269.711 113.735 275.447 120.005C281.317 126.275 289.188 129.41 299.06 129.41C305.33 129.41 310.666 128.476 315.068 126.608C319.604 124.607 323.94 121.339 328.075 116.803L337.08 124.807C333.345 128.676 329.543 131.811 325.674 134.212C321.805 136.48 317.67 138.214 313.267 139.415C308.998 140.482 304.263 141.016 299.06 141.016ZM327.475 87.187C327.742 86.1198 327.875 85.0525 327.875 83.9853C327.875 82.7846 327.875 81.6507 327.875 80.5835C327.875 77.115 327.275 73.5797 326.074 69.9778C325.007 66.3759 323.273 63.1075 320.871 60.1725C318.47 57.2376 315.335 54.8364 311.466 52.9687C307.598 51.101 302.995 50.1672 297.659 50.1672C291.522 50.1672 286.119 51.7013 281.45 54.7697C276.915 57.838 273.379 61.9068 270.845 66.9762C268.31 72.0456 266.843 77.782 266.442 84.1854H331.677L327.475 87.187Z" fill="white"/>
<path d="M240.826 141.015C235.223 141.015 230.754 139.28 227.419 135.812C224.084 132.21 222.416 126.54 222.416 118.803V0.13916H235.023V116.601C235.023 121.137 235.89 124.406 237.624 126.407C239.358 128.408 241.693 129.408 244.628 129.408C245.962 129.408 247.429 129.275 249.03 129.008C250.631 128.608 252.299 128.141 254.033 127.607V138.413C251.765 139.214 249.43 139.814 247.029 140.214C244.761 140.748 242.694 141.015 240.826 141.015Z" fill="white"/>
<path d="M116.018 139.616V0.141602H129.025V139.616H116.018Z" fill="white"/>
<path d="M198.759 139.066C198.759 128.678 195.335 122.202 190.463 117.468C185.289 112.44 178.146 109.03 169.964 105.659C162.264 102.486 153.104 99.1795 146.211 94.3619C138.792 89.1758 133.236 81.7608 133.236 70.459C133.236 59.3141 138.626 51.3495 145.754 45.346C152.59 39.5884 161.567 35.1965 169.497 31.1574C177.807 26.9255 185.181 22.9895 190.562 17.9792C195.671 13.2217 198.759 7.70248 198.759 -5.60197e-07L211.575 0C211.575 11.9338 206.472 20.6777 199.296 27.3592C192.392 33.7879 183.385 38.4671 175.314 42.5778C166.864 46.8813 159.459 50.5595 154.01 55.1488C148.853 59.4922 146.053 64.152 146.053 70.459C146.053 76.6088 148.687 80.4561 153.553 83.8571C158.946 87.6267 166.167 90.2319 174.847 93.8087C183.046 97.1872 192.284 101.366 199.395 108.277C206.809 115.481 211.575 125.298 211.575 139.066L198.759 139.066Z" fill="white"/>
</svg>
