<svg width="1157" height="293" viewBox="0 0 1157 293" fill="none" xmlns="http://www.w3.org/2000/svg">
<path d="M-8.99583e-05 140.144C11.4584 140.144 18.6384 135.734 24.144 128.922C30.089 121.565 34.1282 111.329 38.1072 99.588C41.8452 88.5586 45.6836 75.5874 51.3536 65.8019C57.3584 55.439 66.5713 46.6471 81.4574 46.647C96.3011 46.647 105.61 55.3887 111.766 65.6995C117.6 75.472 121.648 88.4136 125.562 99.47C129.722 111.218 133.905 121.493 139.94 128.888C145.548 135.76 152.737 140.144 163.995 140.144L163.995 158.382C146.695 158.382 134.508 151.079 125.809 140.42C117.538 130.284 112.485 117.183 108.369 105.557C104.007 93.2393 100.738 82.8058 96.1063 75.0477C91.7963 67.8284 87.4888 64.8847 81.4574 64.8847C75.469 64.8848 71.2863 67.7785 67.1335 74.9453C62.6456 82.6906 59.5626 93.0959 55.3787 105.441C51.4362 117.074 46.5515 130.211 38.3298 140.385C29.6678 151.103 17.4361 158.382 -9.15527e-05 158.382L-8.99583e-05 140.144Z" fill="black"/>
<path d="M73.7323 188.189C86.5462 188.189 94.3125 191.329 99.6619 195.342C105.242 199.529 109.063 205.284 113.033 212.293C116.688 218.745 120.976 227.388 127.085 233.826C133.863 240.967 142.904 245.645 155.798 245.645C181.794 245.645 194.227 226.753 203.905 213.061C214.307 198.347 222.25 188.189 238.738 188.189L238.738 169.952C211.819 169.952 198.917 188.523 189.012 202.536C178.383 217.571 171.048 227.408 155.798 227.408C148.067 227.408 143.76 224.903 140.314 221.272C136.199 216.937 133.384 211.216 128.902 203.304C124.736 195.949 119.386 187.34 110.606 180.754C101.596 173.994 89.8127 169.952 73.7323 169.952L73.7323 188.189Z" fill="black"/>
<path d="M1052.06 292.292C996.202 292.292 953.911 244.839 953.911 186.564C953.911 129.122 997.399 81.6694 1055.25 81.6694C1112.3 81.6694 1156.99 127.457 1156.99 186.564V288.129H1133.45V241.093C1118.69 271.479 1088.76 292.292 1052.06 292.292ZM1055.25 267.733C1098.34 267.733 1132.25 231.103 1132.25 186.981C1132.25 142.858 1098.34 106.228 1055.25 106.228C1012.56 106.228 978.647 142.858 978.647 186.981C978.647 231.103 1012.56 267.733 1055.25 267.733Z" fill="black"/>
<path d="M961.882 105.844C950.149 105.844 941.463 112.646 933.947 127.978C926.273 143.632 921.475 165.15 916.956 188.428C912.601 210.859 908.467 235.226 901.795 253.658C898.434 262.943 894.054 271.867 887.823 278.61C881.267 285.705 872.611 290.387 861.844 290.387C840.304 290.387 827.593 272.826 819.594 255.535C811.265 237.53 805.264 213.88 799.606 191.558C793.779 168.568 788.278 146.812 781.006 130.32C773.399 113.07 766.022 106.577 759.155 105.759L761.987 81.9915C782.787 84.4692 794.984 102.692 802.908 120.662C811.166 139.389 817.151 163.357 822.809 185.678C828.636 208.668 834.119 229.918 841.32 245.485C848.852 261.765 855.717 266.45 861.844 266.45C864.911 266.45 867.473 265.364 870.242 262.367C873.336 259.019 876.386 253.524 879.287 245.51C885.14 229.34 888.856 207.57 893.458 183.866C897.895 161.009 903.164 136.39 912.452 117.443C921.899 98.1732 937.073 81.9069 961.882 81.9069V105.844Z" fill="black"/>
<path d="M675.884 291.113C660.737 291.113 647.242 288.497 635.4 283.264C623.833 278.031 614.194 270.733 606.482 261.37C598.771 252.006 592.85 240.99 588.719 228.321C584.863 215.653 582.936 202.158 582.936 187.837C582.936 173.241 584.863 159.608 588.719 146.94C592.575 133.996 598.22 122.704 605.656 113.065C613.368 103.151 622.731 95.4396 633.747 89.9315C645.039 84.4235 657.983 81.6694 672.579 81.6694C688.002 81.6694 701.221 84.4235 712.237 89.9315C723.529 95.1641 732.617 102.462 739.502 111.826C746.662 120.914 751.895 130.966 755.2 141.983C758.78 152.999 760.57 164.153 760.57 175.444C760.57 177.647 760.433 180.539 760.157 184.119C760.157 187.699 759.882 190.729 759.331 193.207H608.548C609.099 216.617 615.295 234.793 627.138 247.737C639.255 260.681 655.504 267.153 675.884 267.153C688.828 267.153 699.844 265.225 708.932 261.37C718.296 257.239 727.247 250.491 735.784 241.128L754.374 257.652C746.662 265.638 738.813 272.11 730.827 277.068C722.84 281.749 714.303 285.33 705.214 287.808C696.401 290.011 686.625 291.113 675.884 291.113ZM734.545 179.988C735.095 177.785 735.371 175.582 735.371 173.378C735.371 170.9 735.371 168.559 735.371 166.356C735.371 159.195 734.132 151.897 731.653 144.461C729.45 137.025 725.869 130.278 720.912 124.219C715.955 118.16 709.483 113.203 701.496 109.347C693.51 105.492 684.008 103.564 672.992 103.564C660.324 103.564 649.17 106.731 639.531 113.065C630.167 119.4 622.869 127.799 617.636 138.265C612.404 148.73 609.374 160.572 608.548 173.792H743.22L734.545 179.988Z" fill="black"/>
<path d="M555.672 291.113C544.105 291.113 534.879 287.533 527.994 280.372C521.109 272.937 517.667 261.232 517.667 245.259V0.287964H543.692V240.714C543.692 250.078 545.482 256.826 549.062 260.957C552.643 265.088 557.462 267.153 563.521 267.153C566.275 267.153 569.304 266.878 572.609 266.327C575.914 265.501 579.357 264.537 582.937 263.435V285.743C578.255 287.395 573.436 288.634 568.478 289.461C563.796 290.562 559.528 291.113 555.672 291.113Z" fill="black"/>
<path d="M298.01 288.221V0.287964H324.862V288.221H298.01Z" fill="black"/>
<path d="M468.822 287.09C468.822 265.645 461.753 252.277 451.695 242.502C441.014 232.122 426.268 225.084 409.378 218.125C393.482 211.574 374.571 204.748 360.342 194.802C345.025 184.096 333.555 168.788 333.555 145.456C333.555 122.449 344.682 106.007 359.398 93.613C373.511 81.7269 392.042 72.6602 408.414 64.3218C425.568 55.5854 440.792 47.4597 451.9 37.1166C462.448 27.295 468.822 15.9011 468.822 -1.15648e-06L495.279 0C495.279 24.6363 484.745 42.6873 469.931 56.4808C455.677 69.7522 437.085 79.412 420.423 87.8981C402.979 96.7824 387.692 104.376 376.442 113.85C365.796 122.817 360.015 132.436 360.015 145.456C360.015 158.152 365.454 166.095 375.499 173.116C386.632 180.898 401.539 186.276 419.459 193.66C436.385 200.635 455.455 209.26 470.136 223.528C485.44 238.401 495.279 258.667 495.279 287.09L468.822 287.09Z" fill="black"/>
</svg>
