<svg width="495" height="413" viewBox="0 0 495 413" fill="none" xmlns="http://www.w3.org/2000/svg">
<path d="M-5.77304e-05 193.796C23.7506 193.796 38.633 184.655 50.0445 170.535C62.3671 155.286 70.7393 134.069 78.9868 109.734C86.7348 86.8723 94.6908 59.9863 106.443 39.7034C118.89 18.2236 137.986 0.000241746 168.841 3.08202e-05C199.608 3.35099e-05 218.904 18.1193 231.663 39.4912C243.756 59.7471 252.145 86.5717 260.259 109.489C268.881 133.839 277.552 155.138 290.06 170.465C301.684 184.709 316.586 193.796 339.92 193.796L339.92 231.599C304.063 231.599 278.801 216.462 260.772 194.369C243.626 173.359 233.154 146.205 224.621 122.105C215.582 96.5741 208.805 74.9481 199.205 58.8676C190.271 43.9038 181.342 37.8023 168.841 37.8023C156.428 37.8024 147.759 43.8004 139.151 58.6553C129.849 74.7095 123.458 96.277 114.786 121.865C106.614 145.977 96.4898 173.207 79.4483 194.295C61.494 216.511 36.1408 231.598 -6.10352e-05 231.599L-5.77304e-05 193.796Z" fill="black"/>
<path d="M152.829 293.382C179.389 293.382 195.486 299.891 206.574 308.209C218.14 316.885 226.059 328.816 234.289 343.344C241.864 356.716 250.752 374.631 263.416 387.975C277.465 402.778 296.205 412.474 322.93 412.474C376.814 412.474 402.584 373.316 422.645 344.936C444.204 314.436 460.67 293.382 494.844 293.382L494.844 255.58C439.048 255.58 412.304 294.073 391.774 323.118C369.744 354.283 354.54 374.672 322.929 374.672C306.906 374.672 297.979 369.481 290.835 361.954C282.307 352.968 276.471 341.11 267.181 324.71C258.546 309.465 247.458 291.622 229.259 277.97C210.582 263.958 186.159 255.58 152.829 255.58L152.829 293.382Z" fill="black"/>
</svg>
